<?xml version="1.0" encoding="iso-8859-1"?>
<!-- Generator: Adobe Illustrator 19.0.0, SVG Export Plug-In . SVG Version: 6.00 Build 0)  -->
<svg   width="22" height="28" version="1.1" id="Capa_1" xmlns="http://www.w3.org/2000/svg" xmlns:xlink="http://www.w3.org/1999/xlink" x="0px" y="0px"
	 viewBox="0 0 512 512" style="enable-background:new 0 0 512 512;" xml:space="preserve">
<g>
	<g>
		<path d="M352.213,0H61v512h390V98.787L352.213,0z M361,51.213L399.787,90H361V51.213z M421,482H91v-90h330V482z M421,362H91v-69.5
			l105-78.75L307,297l18-24l-44-33l35-26.25l105,78.75V362z M421,255l-105-78.75l-60,45l-60-45L91,255V30h240v90h90V255z"/>
	</g>
</g>
<g>
	<g>
		<rect x="181" y="422" width="150" height="30"/>
	</g>
</g>
<g>
	<g>
		<path d="M166,60c-24.813,0-45,20.187-45,45s20.187,45,45,45s45-20.187,45-45S190.813,60,166,60z M166,120c-8.271,0-15-6.729-15-15
			s6.729-15,15-15s15,6.729,15,15S174.271,120,166,120z"/>
	</g>
</g>
<g>
</g>
<g>
</g>
<g>
</g>
<g>
</g>
<g>
</g>
<g>
</g>
<g>
</g>
<g>
</g>
<g>
</g>
<g>
</g>
<g>
</g>
<g>
</g>
<g>
</g>
<g>
</g>
<g>
</g>
</svg>
